<?xml version="1.0" encoding="utf-8"?>
<!-- Generator: Adobe Illustrator 16.0.0, SVG Export Plug-In . SVG Version: 6.00 Build 0)  -->
<!DOCTYPE svg PUBLIC "-//W3C//DTD SVG 1.1//EN" "http://www.w3.org/Graphics/SVG/1.1/DTD/svg11.dtd">
<svg version="1.1" id="Layer_1" xmlns="http://www.w3.org/2000/svg" xmlns:xlink="http://www.w3.org/1999/xlink" x="0px" y="0px"
	 width="375px" height="431.919px" viewBox="0 0 375 431.919" enable-background="new 0 0 375 431.919" xml:space="preserve">
<path fill-rule="evenodd" clip-rule="evenodd" fill="#050505" d="M312.448,424.487c-4.654,0.158-9.309,0.451-13.963,0.453
	c-95.496,0.027-190.992,0.023-286.488,0.004c-1.988,0-3.976-0.244-5.956-0.373c2.945-10.984,2.989-22.455,5.635-33.492
	c0.352-1.465,0.071-2.975-1.407-3.918c5.49-0.152,10.98-0.438,16.471-0.441c56.66-0.027,113.319-0.08,169.979,0.117
	c4.969,0.018,6.044-1.809,6.629-6.223c2.425-18.293,4.739-36.604,7.697-54.832c2.396-14.758,3.775-29.678,5.813-44.498
	c2.263-16.449,4.831-32.857,7.138-49.301c2.678-19.079,5.119-38.191,7.839-57.264c2.979-20.892,6.214-41.745,9.228-62.631
	c1.924-13.331,3.646-26.69,5.463-40.036c1.054-7.739,2.013-15.494,3.232-23.207c0.459-2.907-0.354-3.794-3.272-3.782
	c-22.83,0.085-45.66,0.107-68.49-0.018c-3.062-0.017-3.995,1.188-4.354,3.938c-2.345,17.956-4.682,35.915-7.236,53.842
	c-3.022,21.208-6.771,42.326-9.234,63.597c-1.722,14.867-4.314,29.599-5.933,44.481c-1.83,16.838-4.707,33.565-7.121,50.34
	c-2.249,15.623-4.507,31.246-6.716,46.877c-0.44,3.115,2.04,2.287,3.579,2.297c13.329,0.086,26.66,0.096,39.99,0.111
	c2.832,0.004,5.674,0.068,8.494-0.131c3.207-0.229,4.637,0.754,4.098,4.244c-1.547,10.01-3.019,20.035-4.303,30.082
	c-0.443,3.471-2.287,4.258-5.373,4.256c-53.658-0.059-107.317-0.09-160.976-0.025c-4.056,0.004-5.455-0.75-4.759-5.389
	c3.181-21.184,5.613-42.482,8.851-63.658c3.542-23.172,6.728-46.387,9.904-69.61c2.857-20.888,6.36-41.688,9.337-62.561
	c3.073-21.546,5.802-43.141,8.778-64.7c3.272-23.696,6.724-47.367,9.926-71.072c0.552-4.084,2.478-4.999,6.29-4.995
	C169.059,7.051,266.88,7.045,364.7,6.958c3.826-0.003,4.679,0.806,4.088,4.831c-3.714,25.311-7.066,50.673-10.551,76.018
	c-2.284,16.613-4.254,33.278-6.971,49.821c-3.1,18.867-5.338,37.845-8.068,56.757c-2.396,16.601-4.586,33.231-6.948,49.833
	c-2.739,19.25-5.461,38.5-8.158,57.756c-2.281,16.279-4.505,32.572-6.943,48.822c-1.641,10.934-2.321,22.07-5.419,32.789
	c-0.319,1.107-0.568,2.703,0.951,3.561c-2.043,3.123-2.672,6.564-2.316,10.23c0.456,4.713-0.648,9.334-1.758,13.758
	C311.454,415.722,311.085,420.013,312.448,424.487z"/>
</svg>
